<!-- icon666.com - MILLIONS vector ICONS FREE --><svg viewBox="0 0 512 512" xmlns="http://www.w3.org/2000/svg"><path d="m61 407h90v105h-90zm0 0" fill="#fdbf00"></path><path d="m241 407h90v105h-90zm0 0" fill="#ff9100"></path><path d="m31 92h330v315h-330zm0 0" fill="#fff7cc"></path><path d="m196 92h165v315h-165zm0 0" fill="#ffe6b3"></path><path d="m121 62v90h150v-90zm0 0" fill="#fdbf00"></path><path d="m196 62h75v90h-75zm0 0" fill="#ff9100"></path><path d="m507.449219 243.269531-7.371094 73.730469-48.078125 12-48.078125-12-7.371094-73.730469c-1.5625-15.640625 3.589844-31.289062 14.128907-42.941406 10.550781-11.648437 25.609374-18.328125 41.320312-18.328125s30.769531 6.679688 41.320312 18.328125c10.539063 11.652344 15.691407 27.300781 14.128907 42.941406zm0 0" fill="#fff7cc"></path><path d="m507.449219 243.269531-7.371094 73.730469-48.078125 12v-147c15.710938 0 30.769531 6.679688 41.320312 18.328125 10.539063 11.652344 15.691407 27.300781 14.128907 42.941406zm0 0" fill="#ffca80"></path><path d="m196 188.269531c-9.191406-4.03125-19.339844-6.269531-30-6.269531-41.351562 0-75 33.648438-75 75 0 13.179688 3.46875 26.148438 10.039062 37.511719h97.960938l42-37.511719c0-30.691406-18.539062-57.140625-45-68.730469zm0 0" fill="#ffda2d"></path><path d="m241 257-42 37.511719h-3v-106.242188c26.460938 11.589844 45 38.039063 45 68.730469zm0 0" fill="#fdbf00"></path><path d="m361 250.78125v111.21875h-330v-90h165l90-96.210938zm0 0" fill="#57d9d4"></path><path d="m361 250.78125v111.21875h-165v-90l90-96.210938zm0 0" fill="#26bfbf"></path><path d="m0 392h391v30h-391zm0 0" fill="#ffda2d"></path><path d="m196 392h195v30h-195zm0 0" fill="#fdbf00"></path><path d="m506.359375 126.570312-54.359375-126.570312-54.359375 126.570312c-3.742187 8-5.640625 16.550782-5.640625 25.429688 0 33.078125 26.921875 60 60 60s60-26.921875 60-60c0-8.878906-1.898438-17.429688-5.640625-25.429688zm0 0" fill="#766e6e"></path><path d="m506.359375 126.570312-54.359375-126.570312v212c33.078125 0 60-26.921875 60-60 0-8.878906-1.898438-17.429688-5.640625-25.429688zm0 0" fill="#5b5555"></path><path d="m500.078125 317-19.507813 195h-57.140624l-19.507813-195zm0 0" fill="#ff637b"></path><path d="m500.078125 317-19.507813 195h-28.570312v-195zm0 0" fill="#e63950"></path></svg>